<svg width="18" height="22" xmlns="http://www.w3.org/2000/svg">
 <g>
  <title>background</title>
  <rect x="-1" y="-1" width="20" height="24" id="canvas_background" fill="none"/>
 </g>

 <g>
  <title>Layer 1</title>
  <g id="svg_1">
   <path d="m0,7.10796l0,1.97728l0,0.98864l0,2.9659l0,0.98864l0,4.94318l0,0.98864c0,1.09244 0.88918,1.97728 1.98611,1.97728l13.90278,0c1.09733,0 1.98611,-0.88483 1.98611,-1.97728l0,-0.98864l0,-4.94318l0,-3.95454l0,-2.9659l-17.875,0l0.00001,-0.00001z" fill="#16a085" id="svg_2"/>
   <path d="m0,6.11929l0,1.97728l0,0.98864l0,2.9659l0,0.98864l0,4.94318l0,0.98864c0,1.0875 0.88918,1.97728 1.98611,1.97728l13.90278,0c1.09733,0 1.98611,-0.88977 1.98611,-1.97728l0,-0.98864l0,-4.94318l0,-3.95454l0,-2.9659l-17.875,0l0.00001,-0.00001z" fill="#ecf0f1" id="svg_3"/>
   <path d="m0,5.13066l0,1.97728l0,0.98864l0,2.9659l0,0.98864l0,4.94318l0,0.98864c0,1.0875 0.88918,1.97728 1.98611,1.97728l13.90278,0c1.09733,0 1.98611,-0.88977 1.98611,-1.97728l0,-0.98864l0,-4.94318l0,-3.95454l0,-2.9659l-17.875,0l0.00001,-0.00001z" fill="#bdc3c7" id="svg_4"/>
   <path d="m0,4.14202l0,1.97728l0,0.98864l0,2.9659l0,0.98864l0,4.94318l0,0.98864c0,1.0875 0.88918,1.97728 1.98611,1.97728l13.90278,0c1.09733,0 1.98611,-0.88977 1.98611,-1.97728l0,-0.98864l0,-4.94318l0,-3.95454l0,-2.9659l-17.875,0l0.00001,-0.00001z" fill="#ecf0f1" id="svg_5"/>
   <path d="m1.98611,0.1875c-1.09693,0 -1.98611,0.88522 -1.98611,1.97728l0,0.98864l0,3.95454l0,1.97728l0,0.98864l0,2.9659l0,0.98864l0,4.94318l0,0.98864c0,1.09244 0.88918,1.97728 1.98611,1.97728l1.98611,0l0,-0.98864l-1.48958,0c-0.82265,0 -1.48958,-0.66436 -1.48958,-1.48295s0.66693,-1.48295 1.48958,-1.48295l12.41319,0l0.99305,0c1.09733,0 1.98611,-0.88483 1.98611,-1.97728l0,-0.98864l0,-4.94318l0,-3.95454l0,-2.9659l0,-0.98864c0,-1.09205 -0.88879,-1.97728 -1.98611,-1.97728l-3.97222,0l-9.93055,0l0.00001,-0.00001z" fill="#16a085" id="svg_6"/>
   <path d="m4.96528,0.1875l0,17.79546l0.99305,0l8.9375,0l0.99305,0c1.09733,0 1.98611,-0.88483 1.98611,-1.97728l0,-0.98864l0,-4.94318l0,-3.95454l0,-2.9659l0,-0.98864c0,-1.09205 -0.88879,-1.97728 -1.98611,-1.97728l-3.97222,0l-5.95833,0l-0.99305,0z" fill="#1abc9c" id="svg_7"/>
  </g>
 </g>
</svg>